<svg xmlns="http://www.w3.org/2000/svg" viewBox="0 0 240 400" width="240" height="400">
  <!-- 罗小黑 · cinematic poster style: sleek black cat spirit on a crag, giant spectral panther form looming behind -->
  <defs>
    <style>
      .luoxiaohei-aura { animation: luoxiaohei-pulse 4s ease-in-out infinite; }
      .luoxiaohei-spirit { animation: luoxiaohei-breathe 6s ease-in-out infinite; transform-box: fill-box; transform-origin: 50% 100%; }
      .luoxiaohei-paneyes { animation: luoxiaohei-flicker 3.2s ease-in-out infinite; }
      .luoxiaohei-halo { animation: luoxiaohei-pulse 3s ease-in-out infinite; }
      .luoxiaohei-trail { animation: luoxiaohei-flicker 2.4s ease-in-out infinite; }
      .luoxiaohei-orbit { animation: luoxiaohei-pulse 2.6s ease-in-out infinite; }
      .luoxiaohei-tail { animation: luoxiaohei-sway 4s ease-in-out infinite; transform-box: fill-box; transform-origin: 0% 100%; }
      .luoxiaohei-bob-a { animation: luoxiaohei-bob 3.6s ease-in-out infinite; transform-box: fill-box; transform-origin: 50% 50%; }
      .luoxiaohei-bob-b { animation: luoxiaohei-bob 4.4s ease-in-out -1.5s infinite; transform-box: fill-box; transform-origin: 50% 50%; }
      .luoxiaohei-bob-c { animation: luoxiaohei-bob2 5s ease-in-out -0.8s infinite; transform-box: fill-box; transform-origin: 50% 50%; }
      .luoxiaohei-mote { animation: luoxiaohei-rise 4s linear infinite; transform-box: fill-box; transform-origin: 50% 50%; }
      .luoxiaohei-d1 { animation-delay: -1s; }
      .luoxiaohei-d2 { animation-delay: -2s; }
      .luoxiaohei-d3 { animation-delay: -3s; }
      .luoxiaohei-mist { animation: luoxiaohei-drift 6s ease-in-out infinite; transform-box: fill-box; transform-origin: 50% 50%; }
      @keyframes luoxiaohei-pulse { 0%, 100% { opacity: .7; } 50% { opacity: 1; } }
      @keyframes luoxiaohei-breathe { 0%, 100% { transform: scale(1); opacity: .88; } 50% { transform: scale(1.018); opacity: 1; } }
      @keyframes luoxiaohei-flicker { 0%, 100% { opacity: 1; } 42% { opacity: .72; } 50% { opacity: .95; } 58% { opacity: .78; } }
      @keyframes luoxiaohei-sway { 0%, 100% { transform: rotate(0deg); } 50% { transform: rotate(3deg); } }
      @keyframes luoxiaohei-bob { 0%, 100% { transform: translate(0, 0) rotate(0deg); } 50% { transform: translate(2px, -4px) rotate(9deg); } }
      @keyframes luoxiaohei-bob2 { 0%, 100% { transform: translate(0, 0) rotate(0deg); } 50% { transform: translate(-2px, 3px) rotate(-10deg); } }
      @keyframes luoxiaohei-rise { 0% { transform: translate(0, 6px); opacity: 0; } 20% { opacity: 1; } 80% { opacity: .8; } 100% { transform: translate(3px, -22px); opacity: 0; } }
      @keyframes luoxiaohei-drift { 0%, 100% { transform: translateX(0); opacity: .75; } 50% { transform: translateX(6px); opacity: 1; } }
      @media (prefers-reduced-motion: reduce) {
        .luoxiaohei-fx, .luoxiaohei-fx * { animation: none !important; }
      }
    </style>
    <!-- NOTE: animated classes never sit on an element that also carries an opacity attribute
         (a CSS opacity animation would override it); static opacity lives on an inner child instead. -->

    <!-- glow filters (user-space region so thin strokes are not clipped) -->
    <filter id="luoxiaohei-glow" filterUnits="userSpaceOnUse" x="-120" y="-200" width="380" height="620">
      <feGaussianBlur stdDeviation="1.6" result="b"/>
      <feMerge><feMergeNode in="b"/><feMergeNode in="SourceGraphic"/></feMerge>
    </filter>
    <filter id="luoxiaohei-bloom" filterUnits="userSpaceOnUse" x="-120" y="-200" width="380" height="620">
      <feGaussianBlur stdDeviation="5"/>
    </filter>

    <!-- ===== gradients ===== -->
    <radialGradient id="luoxiaohei-aura" cx="120" cy="200" r="150" gradientUnits="userSpaceOnUse" gradientTransform="translate(120 200) scale(.75 1.15) translate(-120 -200)">
      <stop offset="0" stop-color="#7dff6a" stop-opacity=".2"/>
      <stop offset=".45" stop-color="#2fae3c" stop-opacity=".07"/>
      <stop offset="1" stop-color="#0b2a10" stop-opacity="0"/>
    </radialGradient>
    <!-- panther: dark core, greener toward its edges (spectral fresnel) -->
    <radialGradient id="luoxiaohei-panfill" cx="120" cy="140" r="118" gradientUnits="userSpaceOnUse" gradientTransform="translate(120 140) scale(1 1.12) translate(-120 -140)">
      <stop offset="0" stop-color="#010704" stop-opacity=".62"/>
      <stop offset=".55" stop-color="#031a0a" stop-opacity=".56"/>
      <stop offset=".85" stop-color="#0a3c17" stop-opacity=".6"/>
      <stop offset="1" stop-color="#1a7a2c" stop-opacity=".75"/>
    </radialGradient>
    <!-- vertical fade so the spirit's shoulders dissolve into smoke -->
    <linearGradient id="luoxiaohei-fade" x1="0" y1="150" x2="0" y2="292" gradientUnits="userSpaceOnUse">
      <stop offset="0" stop-color="#fff"/>
      <stop offset=".5" stop-color="#777"/>
      <stop offset="1" stop-color="#000"/>
    </linearGradient>
    <mask id="luoxiaohei-panmask" maskUnits="userSpaceOnUse" x="0" y="0" width="240" height="320">
      <rect x="0" y="0" width="240" height="320" fill="url(#luoxiaohei-fade)"/>
    </mask>
    <linearGradient id="luoxiaohei-paneye" x1="0" y1="0" x2="0" y2="1">
      <stop offset="0" stop-color="#f4ffe8"/>
      <stop offset=".6" stop-color="#9dff8a"/>
      <stop offset="1" stop-color="#3fcf48"/>
    </linearGradient>
    <!-- cat body: lit from behind/above (upper-right), falling to near-black -->
    <linearGradient id="luoxiaohei-catbody" x1="40" y1="-125" x2="-40" y2="0" gradientUnits="userSpaceOnUse">
      <stop offset="0" stop-color="#1a4421"/>
      <stop offset=".4" stop-color="#0a170c"/>
      <stop offset="1" stop-color="#030604"/>
    </linearGradient>
    <radialGradient id="luoxiaohei-cathead" cx="-33" cy="-80" r="34" gradientUnits="userSpaceOnUse">
      <stop offset="0" stop-color="#030604"/>
      <stop offset=".7" stop-color="#08130a"/>
      <stop offset="1" stop-color="#173c1d"/>
    </radialGradient>
    <!-- soft lit planes -->
    <radialGradient id="luoxiaohei-sheen" cx=".5" cy=".5" r=".5">
      <stop offset="0" stop-color="#6be25e" stop-opacity=".5"/>
      <stop offset="1" stop-color="#6be25e" stop-opacity="0"/>
    </radialGradient>
    <radialGradient id="luoxiaohei-eye" cx=".5" cy=".6" r=".6">
      <stop offset="0" stop-color="#f6ffe9"/>
      <stop offset=".4" stop-color="#c2ffab"/>
      <stop offset=".8" stop-color="#7dff6a"/>
      <stop offset="1" stop-color="#2a9a35"/>
    </radialGradient>
    <linearGradient id="luoxiaohei-rock" x1="0" y1="320" x2="0" y2="390" gradientUnits="userSpaceOnUse">
      <stop offset="0" stop-color="#1a221c"/>
      <stop offset=".45" stop-color="#0c100d"/>
      <stop offset="1" stop-color="#060706"/>
    </linearGradient>
    <linearGradient id="luoxiaohei-rocktop" x1="0" y1="320" x2="0" y2="344" gradientUnits="userSpaceOnUse">
      <stop offset="0" stop-color="#2c4a30"/>
      <stop offset="1" stop-color="#111914"/>
    </linearGradient>
    <radialGradient id="luoxiaohei-ground" cx=".5" cy=".5" r=".5">
      <stop offset="0" stop-color="#7dff6a" stop-opacity=".55"/>
      <stop offset=".5" stop-color="#3fcf48" stop-opacity=".2"/>
      <stop offset="1" stop-color="#0b2a10" stop-opacity="0"/>
    </radialGradient>
    <linearGradient id="luoxiaohei-shard" x1="0" y1="0" x2="1" y2="1">
      <stop offset="0" stop-color="#f2fff5"/>
      <stop offset=".35" stop-color="#a9d6bb"/>
      <stop offset=".7" stop-color="#3c5e4a"/>
      <stop offset="1" stop-color="#14231a"/>
    </linearGradient>
    <linearGradient id="luoxiaohei-leaf" x1="0" y1="0" x2="1" y2="1">
      <stop offset="0" stop-color="#e0ffc4"/>
      <stop offset=".45" stop-color="#6be25e"/>
      <stop offset="1" stop-color="#15702a"/>
    </linearGradient>

    <!-- ===== shared shapes ===== -->
    <path id="luoxiaohei-shardp" d="M-1.5 -9 L3 -2.5 L1.5 8 L-2.5 1.5 Z"/>
    <path id="luoxiaohei-leafp" d="M0 -8 C3.5 -4 3.5 3 0 8 C-3.5 3 -3.5 -4 0 -8 Z"/>

    <!-- spectral panther: feline head + shoulders; windward (left) ruff lies flat,
         leeward (right) ruff streams out like flame in the wind (absolute coords) -->
    <path id="luoxiaohei-panther" d="M56 24 Q78 38 96 60 C110 55 130 55 144 60 Q162 38 184 24 Q194 52 188 80 C198 78 204 68 214 62 C208 72 204 94 192 96 C202 94 217 86 226 79 C221 90 208 111 196 113 C206 111 215 110 224 103 C219 114 207 129 195 131 C205 130 211 133 218 137 C212 145 200 150 188 150 C200 164 210 184 214 210 C218 236 222 262 214 300 L26 300 C18 262 22 236 26 210 C30 184 40 166 50 154 C40 156 33 152 29 145 C36 145 41 141 44 135 C36 131 31 124 29 116 C36 117 41 113 45 107 C43 101 44 97 46 93 Q44 56 56 24 Z"/>

    <!-- cat parts (local coords: paws at y=0, sleek body in profile facing left, head turned to camera) -->
    <path id="luoxiaohei-c-legff" d="M-31 -44 C-30 -32 -27.5 -18 -26.5 -8 C-26.5 -3 -25.5 0 -21.5 0 L-15.5 0 C-15.5 -2 -17 -3.5 -19 -4.5 C-19.5 -14 -20 -28 -18.5 -42 Z"/>
    <path id="luoxiaohei-c-legfh" d="M4 -56 C16 -64 38 -60 40 -49 C40.5 -41 38 -35 35 -30 C33 -26 33 -22 35 -18 C35 -13 33 -6 32.5 -1 C32.5 .6 30 .8 27 .8 L21 .8 C20.5 -1 22 -2.5 25 -3.5 C26 -8 26.5 -12 26.5 -16 C24 -21 20 -27 16 -32 C12 -36 9 -40 6 -42 Z"/>
    <path id="luoxiaohei-c-body" d="M-42 -64 C-46.5 -56 -46 -45 -39 -39 C-31 -33 -20 -34 -10 -37.5 C0 -41 10 -44.5 18 -44.5 C26 -44.5 40 -41 46 -47 C50 -54 46 -62.5 36 -64.5 C26 -66 16 -64 8 -65 C0 -66 -4 -69 -10 -74 C-20 -80 -36 -76 -42 -64 Z"/>
    <!-- near front leg raised mid-step, paw hanging: an alert, stalking pose -->
    <path id="luoxiaohei-c-legnf" d="M-44 -54 C-47 -46 -47 -40 -46 -35 C-48 -30 -51 -25 -53 -20 C-55 -17 -55.5 -13 -53.5 -10 C-52 -7.5 -48.5 -7 -46.5 -8.5 C-45 -9.8 -45.6 -12 -46.6 -14 C-44.5 -18 -41 -24 -37 -29 C-33 -33 -30 -38 -28 -44 Z"/>
    <path id="luoxiaohei-c-legnh" d="M10 -58 C22 -68 48 -64 49 -51 C50 -43 47 -35 44 -29 C42 -25 42 -21 44 -17 C44 -12 42 -5 41.5 -1 C41.5 1 39 1.2 36 1.2 L30 1.2 C29.5 -1 31 -2.5 34 -3.5 C35 -8 35.5 -12 35.5 -16 C33 -21 29 -27 25 -32 C21 -36 18 -40 14 -42 Z"/>
    <path id="luoxiaohei-c-head" d="M-30 -62 C-38 -62 -46 -65 -51 -72 L-56 -74 L-53 -79 C-55 -86 -54 -92 -50 -97 Q-56 -112 -58 -128 Q-46 -116 -38 -106 C-32 -108 -24 -108 -18 -106 Q-8 -116 -1 -130 Q-2 -112 -6 -97 C-2 -90 -2 -82 -4 -78 L0 -75 L-6 -72 C-12 -64 -22 -62 -30 -62 Z"/>
    <!-- long, thin tail rising in an S and hooking at the tip -->
    <path id="luoxiaohei-c-tail" d="M45 -55.5 C58.5 -58 65 -72 64.2 -90 C63.4 -108 55.5 -121 61 -135.5 C65.5 -148 81 -151 88.2 -141.5 C88.4 -140.4 87.6 -140 87 -140.4 C81 -144.6 72.5 -142 67 -132.6 C62.6 -120 69.6 -108 70 -90 C70.6 -68 62.5 -50.5 46.5 -47.5 Z"/>
    <!-- almond eyes: outer corners raised -->
    <path id="luoxiaohei-c-eyel" d="M-46.5 -87.5 C-43 -90.4 -37 -89 -34 -83.2 C-36.5 -80 -43 -79.8 -46.5 -87.5 Z"/>
    <path id="luoxiaohei-c-eyer" d="M-23.5 -83.6 C-20.5 -89 -14 -91 -9.5 -88.2 C-12.5 -80.8 -19.5 -80 -23.5 -83.6 Z"/>
    <g id="luoxiaohei-catsil">
      <use href="#luoxiaohei-c-legff"/><use href="#luoxiaohei-c-legfh"/><use href="#luoxiaohei-c-body"/>
      <use href="#luoxiaohei-c-legnf"/><use href="#luoxiaohei-c-legnh"/>
      <g transform="translate(-26 -64) scale(.9) translate(26 64)"><use href="#luoxiaohei-c-head"/></g>
    </g>
  </defs>

  <g class="luoxiaohei-fx">

    <!-- ===== 1. backdrop aura ===== -->
    <ellipse class="luoxiaohei-aura" cx="120" cy="200" rx="112" ry="180" fill="url(#luoxiaohei-aura)"/>

    <!-- ===== 2. spectral panther (his true, powerful form) ===== -->
    <g mask="url(#luoxiaohei-panmask)">
      <g class="luoxiaohei-spirit">
        <!-- soft outer glow of the silhouette -->
        <use href="#luoxiaohei-panther" fill="none" stroke="#7dff6a" stroke-width="6" opacity=".3" filter="url(#luoxiaohei-bloom)"/>
        <!-- translucent body with greener edges -->
        <use href="#luoxiaohei-panther" fill="url(#luoxiaohei-panfill)"/>
        <!-- soft sculpting: lit planes (forehead, cheekbones, nose bridge, muzzle) and deep shadows -->
        <g filter="url(#luoxiaohei-bloom)">
          <g fill="#7dff6a">
            <ellipse cx="120" cy="80" rx="22" ry="9" opacity=".12"/>
            <ellipse cx="80" cy="130" rx="17" ry="7" transform="rotate(28 80 130)" opacity=".16"/>
            <ellipse cx="160" cy="130" rx="17" ry="7" transform="rotate(-28 160 130)" opacity=".16"/>
            <ellipse cx="120" cy="126" rx="5" ry="14" opacity=".12"/>
            <ellipse cx="109" cy="162" rx="9" ry="6" opacity=".1"/>
            <ellipse cx="131" cy="162" rx="9" ry="6" opacity=".1"/>
          </g>
          <g fill="#000">
            <ellipse cx="120" cy="196" rx="58" ry="12" opacity=".7"/>
            <ellipse cx="120" cy="178" rx="14" ry="6" opacity=".55"/>
          </g>
        </g>
        <!-- crisp rim -->
        <use href="#luoxiaohei-panther" fill="none" stroke="#7dff6a" stroke-width="1" stroke-linejoin="round" opacity=".8"/>
        <!-- inner ear shadows -->
        <path d="M60 34 Q76 47 90 62 L72 78 Z M180 34 Q164 47 150 62 L168 78 Z" fill="#010603" opacity=".55"/>
        <!-- brow shadows (heavy frown) -->
        <path d="M58 88 C82 83 102 96 114 112 L111 101 C98 88 80 81 58 88 Z M182 88 C158 83 138 96 126 112 L129 101 C142 88 160 81 182 88 Z" fill="#010603" opacity=".75"/>
        <!-- jaw: rim light along the jawline gives the head a chin and separates it from the chest -->
        <path d="M58 150 C72 172 96 186 120 188 C144 186 168 172 182 150" fill="none" stroke="#7dff6a" stroke-width="1" stroke-linecap="round" opacity=".38" filter="url(#luoxiaohei-glow)"/>
        <!-- nose + mouth -->
        <path d="M109 143 L131 143 C130 148 125 152 120 155 C115 152 110 148 109 143 Z" fill="#010603" stroke="#7dff6a" stroke-width=".6" stroke-opacity=".45"/>
        <path d="M120 155 L120 160 M105 167 C110 164 115 162 120 160 C125 162 130 164 135 167" fill="none" stroke="#010603" stroke-width="1.4" stroke-linecap="round" stroke-linejoin="round" opacity=".9"/>
        <!-- shoulders dissolving into spirit smoke -->
        <g class="luoxiaohei-mist">
          <g fill="#7dff6a" opacity=".2" filter="url(#luoxiaohei-bloom)">
            <path d="M26 226 C42 244 34 270 54 290 C36 292 18 270 26 226 Z"/>
            <path d="M214 226 C198 244 206 270 186 290 C204 292 222 270 214 226 Z"/>
            <path d="M200 100 C210 94 216 98 222 90 C218 106 208 108 200 100 Z"/>
          </g>
        </g>
        <!-- glowing eyes + light streaks -->
        <g class="luoxiaohei-paneyes">
          <path d="M70 98 C84 98 98 106 106 116 C94 118 80 112 70 98 Z M170 98 C156 98 142 106 134 116 C146 118 160 112 170 98 Z" fill="#7dff6a" opacity=".9" filter="url(#luoxiaohei-bloom)"/>
          <path d="M73 100 C62 95 50 92 36 92 L72 102 Z M167 100 C178 95 190 92 204 92 L168 102 Z" fill="#9dff8a" opacity=".55" filter="url(#luoxiaohei-glow)"/>
          <path d="M72 100 C84 100 96 106 104 114 C94 116 82 112 72 100 Z M168 100 C156 100 144 106 136 114 C146 116 158 112 168 100 Z" fill="url(#luoxiaohei-paneye)" filter="url(#luoxiaohei-glow)"/>
          <path d="M90 104.5 L91.5 112 L89.5 112 Z M150 104.5 L148.5 112 L150.5 112 Z" fill="#06300c"/>
        </g>
      </g>
    </g>

    <!-- ===== 3. orbit ring + shards BEHIND the cat ===== -->
    <g class="luoxiaohei-orbit">
      <g transform="rotate(-8 118 268)">
        <path d="M26 268 A92 26 0 0 1 210 268" fill="none" stroke="#7dff6a" stroke-width=".7" opacity=".26"/>
      </g>
    </g>
    <g filter="url(#luoxiaohei-glow)" opacity=".8">
      <g transform="translate(196 246) rotate(60)"><g class="luoxiaohei-bob-b"><use href="#luoxiaohei-leafp" fill="url(#luoxiaohei-leaf)"/></g></g>
      <g transform="translate(150 232) rotate(-30) scale(.9)"><g class="luoxiaohei-bob-a"><use href="#luoxiaohei-shardp" fill="url(#luoxiaohei-shard)" stroke="#b9ffab" stroke-width=".6"/></g></g>
      <g transform="translate(58 254) rotate(40) scale(.85)"><g class="luoxiaohei-bob-c"><use href="#luoxiaohei-shardp" fill="url(#luoxiaohei-shard)" stroke="#b9ffab" stroke-width=".6"/></g></g>
      <g transform="translate(34 272) rotate(-70) scale(.9)"><g class="luoxiaohei-bob-a"><use href="#luoxiaohei-leafp" fill="url(#luoxiaohei-leaf)"/></g></g>
    </g>

    <!-- ===== 4. the crag ===== -->
    <g>
      <path d="M46 388 L54 366 L64 348 L72 336 L92 326 L118 321 L146 322 L168 328 L184 338 L192 354 L198 372 L200 388 Z" fill="url(#luoxiaohei-rock)"/>
      <!-- lit top plane -->
      <path d="M72 336 L92 326 L118 321 L146 322 L168 328 L184 338 L160 341 L128 343 L96 342 Z" fill="url(#luoxiaohei-rocktop)"/>
      <!-- shadow-side facet and green-bounce facet -->
      <path d="M184 338 L192 354 L198 372 L200 388 L176 388 L170 360 L160 341 Z" fill="#000" opacity=".35"/>
      <path d="M72 336 L96 342 L88 366 L78 388 L46 388 L54 366 L64 348 Z" fill="#1c3a22" opacity=".35"/>
      <path d="M128 343 L134 362 L128 388 L104 388 L110 362 Z" fill="#000" opacity=".18"/>
      <!-- cracks -->
      <path d="M118 343 L114 356 L120 368 L116 388 M150 342 L156 360 L152 372 M96 342 L92 352" fill="none" stroke="#030403" stroke-width="1.2"/>
      <!-- rim along the back ridge -->
      <path d="M72 336 L92 326 L118 321 L146 322 L168 328 L184 338" fill="none" stroke="#7dff6a" stroke-width="1.3" stroke-linejoin="round" opacity=".75" filter="url(#luoxiaohei-glow)"/>
      <path d="M72 336 L96 342 L128 343 L160 341 L184 338" fill="none" stroke="#7dff6a" stroke-width=".7" opacity=".22"/>
    </g>

    <!-- ===== 5. the cat ===== -->
    <g transform="translate(120 334) scale(1.15)">
      <!-- spirit halo around the silhouette -->
      <g class="luoxiaohei-halo">
        <use href="#luoxiaohei-catsil" fill="#7dff6a" opacity=".38" filter="url(#luoxiaohei-bloom)"/>
      </g>

      <!-- tail (sways) -->
      <g class="luoxiaohei-tail">
        <use href="#luoxiaohei-c-tail" fill="#7dff6a" opacity=".32" filter="url(#luoxiaohei-bloom)"/>
        <use href="#luoxiaohei-c-tail" fill="url(#luoxiaohei-catbody)"/>
        <path d="M45 -55.5 C58.5 -58 65 -72 64.2 -90 C63.4 -108 55.5 -121 61 -135.5 C64 -143.5 72 -147.5 80 -146.5" fill="none" stroke="#9dff8a" stroke-width=".9" opacity=".85" filter="url(#luoxiaohei-glow)"/>
        <path d="M70 -90 C70.6 -68 62.5 -50.5 50 -47.5" fill="none" stroke="#7dff6a" stroke-width=".6" opacity=".3"/>
        <path d="M64.6 -96 C63.6 -108 57 -120 60 -131" fill="none" stroke="#efffe4" stroke-width=".4" stroke-linecap="round"/>
      </g>

      <!-- far legs (with faint back-edge rim so they do not vanish), body, near legs -->
      <use href="#luoxiaohei-c-legff" fill="#030604"/>
      <use href="#luoxiaohei-c-legfh" fill="#030604"/>
      <path d="M40 -46 C40 -40 38 -35 35 -30 C33 -26 33 -22 35 -18 C35 -13 33 -6 32.5 -1 M-18.6 -38 C-19.6 -26 -19.2 -14 -18.8 -5" fill="none" stroke="#7dff6a" stroke-width=".6" stroke-linecap="round" opacity=".35"/>
      <use href="#luoxiaohei-c-body" fill="url(#luoxiaohei-catbody)"/>
      <use href="#luoxiaohei-c-legnf" fill="url(#luoxiaohei-catbody)"/>
      <use href="#luoxiaohei-c-legnh" fill="url(#luoxiaohei-catbody)"/>

      <!-- soft lit planes: shoulder blade, hip/thigh -->
      <ellipse cx="-4" cy="-66" rx="13" ry="4" transform="rotate(16 -4 -66)" fill="url(#luoxiaohei-sheen)" opacity=".7"/>
      <ellipse cx="36" cy="-56" rx="11" ry="6" transform="rotate(25 36 -56)" fill="url(#luoxiaohei-sheen)" opacity=".8"/>

      <!-- green bounce light from the glowing crag along the belly and raised leg -->
      <path d="M-38 -38.6 C-30 -33.1 -20 -34.1 -10 -37.7 C0 -41.2 8 -44 14 -44.4 M-28.6 -43 C-31 -37 -34 -32.5 -37.4 -28.8" fill="none" stroke="#3fcf48" stroke-width=".55" stroke-linecap="round" opacity=".22"/>

      <!-- body rim light (backlight from upper right) -->
      <g fill="none" stroke="#9dff8a" stroke-linecap="round" stroke-linejoin="round" filter="url(#luoxiaohei-glow)">
        <path d="M-6 -70.5 C-1 -67 3 -65.6 8 -65 C16 -64 26 -66 36 -64.5 C43 -63.2 48.4 -58.5 49.3 -51" stroke-width="1.2"/>
        <path d="M49.6 -46 C49.6 -40 47 -35 44 -29 C42 -25 42 -21 44 -17 C44 -12 42 -5 41.5 -1" stroke-width=".9" opacity=".7"/>
      </g>
      <!-- rim hot spots (white-green core where the backlight grazes hardest) -->
      <path d="M-2 -67.4 C2 -65.8 5 -65.3 8 -65 C16 -64 24 -65.6 30 -65.1 M40 -63.2 C45 -61 48 -57 49 -53" fill="none" stroke="#efffe4" stroke-width=".45" stroke-linecap="round"/>

      <!-- head (scaled slightly for adult proportions) -->
      <g transform="translate(-26 -64) scale(.9) translate(26 64)">
        <use href="#luoxiaohei-c-head" fill="url(#luoxiaohei-cathead)"/>
        <!-- inner ears -->
        <path d="M-51 -99 Q-55 -112 -56 -123 Q-47 -113 -41 -106 Z M-15 -106 Q-8 -114 -3 -125 Q-4 -111 -7 -99 Z" fill="#0d2611"/>
        <!-- soft planes: crown, cheekbone, muzzle -->
        <ellipse cx="-28" cy="-104" rx="10" ry="2.6" fill="url(#luoxiaohei-sheen)" opacity=".7"/>
        <ellipse cx="-6.5" cy="-86" rx="2.6" ry="8" fill="url(#luoxiaohei-sheen)" opacity=".9"/>
        <ellipse cx="-29" cy="-76" rx="3" ry="5" fill="url(#luoxiaohei-sheen)" opacity=".35"/>
        <!-- nose -->
        <path d="M-33 -71 L-27 -71 L-30 -67.5 Z" fill="#010201"/>
        <path d="M-32.5 -71 L-27.5 -71" stroke="#4f9a55" stroke-width=".5" opacity=".6"/>
        <!-- head rim light -->
        <g fill="none" stroke="#9dff8a" stroke-linecap="round" stroke-linejoin="round" filter="url(#luoxiaohei-glow)">
          <path d="M-1 -130 Q-2 -112 -6 -97 C-2 -90 -2 -82 -4 -78" stroke-width="1.25"/>
          <path d="M-50 -97 Q-56 -112 -58 -128" stroke-width=".9"/>
          <path d="M-36 -106.6 C-31 -108.2 -25 -108.2 -20 -106.6" stroke-width=".8" opacity=".6"/>
        </g>
        <path d="M-18 -106 Q-8 -116 -1 -130" fill="none" stroke="#7dff6a" stroke-width=".6" opacity=".35"/>
        <path d="M-1.3 -125 Q-2 -112 -5.6 -99 M-3.4 -92 C-2.6 -88 -2.6 -84 -3.4 -81" fill="none" stroke="#efffe4" stroke-width=".45" stroke-linecap="round"/>
        <!-- whiskers swept back by the wind -->
        <g fill="none" stroke="#c8ffb8" stroke-width=".35" stroke-linecap="round" opacity=".35">
          <path d="M-24 -69 Q-10 -71 8 -68 M-24 -67.5 Q-10 -66 6 -62"/>
          <path d="M-36 -69 Q-46 -71 -56 -70 M-36 -67.5 Q-45 -66 -53 -63"/>
        </g>
        <!-- glowing eyes -->
        <g class="luoxiaohei-trail">
          <use href="#luoxiaohei-c-eyel" fill="#7dff6a" filter="url(#luoxiaohei-bloom)"/>
          <use href="#luoxiaohei-c-eyer" fill="#7dff6a" filter="url(#luoxiaohei-bloom)"/>
        </g>
        <use href="#luoxiaohei-c-eyel" fill="url(#luoxiaohei-eye)"/>
        <use href="#luoxiaohei-c-eyer" fill="url(#luoxiaohei-eye)"/>
        <ellipse cx="-39.8" cy="-84.6" rx=".9" ry="3.2" fill="#032108"/>
        <ellipse cx="-16" cy="-85" rx="1" ry="3.4" fill="#032108"/>
        <!-- crisp lid lines frame the glowing eyes -->
        <use href="#luoxiaohei-c-eyel" fill="none" stroke="#010201" stroke-width=".6"/>
        <use href="#luoxiaohei-c-eyer" fill="none" stroke="#010201" stroke-width=".6"/>
      </g>
    </g>

    <!-- contact shadows under the planted paws -->
    <g fill="#000" opacity=".6">
      <ellipse cx="99" cy="335" rx="5.5" ry="1.4"/>
      <ellipse cx="150" cy="334.8" rx="5" ry="1.3"/><ellipse cx="161" cy="335.6" rx="6" ry="1.5"/>
    </g>

    <!-- ===== 6. orbit ring + shards IN FRONT of the cat ===== -->
    <!-- front arc: bright on both flanks only, so nothing stitches across the cat's body -->
    <g class="luoxiaohei-orbit">
      <g filter="url(#luoxiaohei-glow)">
        <g transform="rotate(-8 118 268)" fill="none" stroke="#7dff6a" stroke-width="1.3">
          <path d="M210 268 A92 26 0 0 1 176 288" stroke-dasharray="30 6" opacity=".7"/>
          <path d="M60 288 A92 26 0 0 1 26 268" stroke-dasharray="24 6 8 6" opacity=".7"/>
        </g>
      </g>
    </g>
    <g filter="url(#luoxiaohei-glow)">
      <g transform="translate(208 262) rotate(20) scale(1.3)"><g class="luoxiaohei-bob-a"><use href="#luoxiaohei-shardp" fill="url(#luoxiaohei-shard)" stroke="#c8ffb8" stroke-width=".6"/></g></g>
      <g transform="translate(178 290) rotate(100) scale(1.25)"><g class="luoxiaohei-bob-c"><use href="#luoxiaohei-leafp" fill="url(#luoxiaohei-leaf)"/></g></g>
      <g transform="translate(48 290) rotate(-50) scale(1.35)"><g class="luoxiaohei-bob-b"><use href="#luoxiaohei-shardp" fill="url(#luoxiaohei-shard)" stroke="#c8ffb8" stroke-width=".6"/></g></g>
      <g transform="translate(24 262) rotate(30) scale(1.1)"><g class="luoxiaohei-bob-c"><use href="#luoxiaohei-shardp" fill="url(#luoxiaohei-shard)" stroke="#c8ffb8" stroke-width=".6"/></g></g>
      <g transform="translate(222 192) rotate(15) scale(1.05)"><g class="luoxiaohei-bob-b"><use href="#luoxiaohei-shardp" fill="url(#luoxiaohei-shard)" stroke="#c8ffb8" stroke-width=".6"/></g></g>
      <g transform="translate(36 200) rotate(-40) scale(1.05)"><g class="luoxiaohei-bob-a"><use href="#luoxiaohei-leafp" fill="url(#luoxiaohei-leaf)"/></g></g>
      <g transform="translate(160 196) rotate(-60) scale(.8)"><g class="luoxiaohei-bob-c"><use href="#luoxiaohei-shardp" fill="url(#luoxiaohei-shard)" stroke="#c8ffb8" stroke-width=".6"/></g></g>
    </g>

    <!-- ===== 7. drifting spirit motes ===== -->
    <g fill="#c8ffb8" filter="url(#luoxiaohei-glow)">
      <circle class="luoxiaohei-mote" cx="40" cy="168" r="1.3"/>
      <circle class="luoxiaohei-mote luoxiaohei-d1" cx="222" cy="226" r="1.1"/>
      <circle class="luoxiaohei-mote luoxiaohei-d2" cx="22" cy="72" r="1"/>
      <circle class="luoxiaohei-mote luoxiaohei-d3" cx="186" cy="230" r="1.4"/>
      <circle class="luoxiaohei-mote luoxiaohei-d1" cx="56" cy="314" r="1.2"/>
      <circle class="luoxiaohei-mote luoxiaohei-d2" cx="194" cy="314" r="1"/>
      <circle class="luoxiaohei-mote luoxiaohei-d3" cx="132" cy="184" r=".9"/>
      <circle class="luoxiaohei-mote" cx="120" cy="34" r="1"/>
      <circle class="luoxiaohei-mote luoxiaohei-d2" cx="214" cy="44" r="1.2"/>
    </g>

    <!-- ===== 8. ground glow + low mist ===== -->
    <ellipse cx="122" cy="386" rx="98" ry="7.5" fill="url(#luoxiaohei-ground)"/>
    <g class="luoxiaohei-mist">
      <g filter="url(#luoxiaohei-bloom)" fill="#7dff6a" opacity=".22">
        <ellipse cx="80" cy="377" rx="34" ry="3"/>
        <ellipse cx="166" cy="379" rx="28" ry="2.5"/>
      </g>
    </g>
  </g>
</svg>
