<svg xmlns="http://www.w3.org/2000/svg" viewBox="0 0 240 400" width="240" height="400">
  <!-- 萧炎 · original cinematic hero drawing: black robe, planted heavy ruler-blade, cyan-green lotus flame in raised palm.
       Lighting: the flame (≈55,108) is the key light; body parts share a radial falloff from it,
       and each lit part has an offset silhouette copy behind it that shows as a rim-light crescent. -->
  <defs>
    <!-- ===== light falloff from the flame (shared user space) ===== -->
    <radialGradient id="xiaoyan-g-lit" gradientUnits="userSpaceOnUse" cx="55" cy="108" r="250">
      <stop offset="0" stop-color="#2b7f6d"/>
      <stop offset="0.12" stop-color="#1a5247"/>
      <stop offset="0.22" stop-color="#11352f"/>
      <stop offset="0.35" stop-color="#0a201c"/>
      <stop offset="0.6" stop-color="#050d0c"/>
      <stop offset="1" stop-color="#030505"/>
    </radialGradient>
    <!-- rim colour: white-hot near the flame, cooling to teal farther away -->
    <radialGradient id="xiaoyan-g-rimc" gradientUnits="userSpaceOnUse" cx="55" cy="108" r="300">
      <stop offset="0" stop-color="#ffffff"/>
      <stop offset="0.14" stop-color="#d4fff4"/>
      <stop offset="0.3" stop-color="#84ffe2"/>
      <stop offset="0.6" stop-color="#39ffd0"/>
      <stop offset="1" stop-color="#22a888"/>
    </radialGradient>
    <linearGradient id="xiaoyan-g-skin" gradientUnits="userSpaceOnUse" x1="103" y1="84" x2="140" y2="102">
      <stop offset="0" stop-color="#4a776b"/>
      <stop offset="0.35" stop-color="#1f2d29"/>
      <stop offset="1" stop-color="#0c0a0a"/>
    </linearGradient>
    <linearGradient id="xiaoyan-g-hair" gradientUnits="userSpaceOnUse" x1="104" y1="50" x2="170" y2="96">
      <stop offset="0" stop-color="#174339"/>
      <stop offset="0.3" stop-color="#070f0d"/>
      <stop offset="1" stop-color="#010202"/>
    </linearGradient>
    <linearGradient id="xiaoyan-g-blade" gradientUnits="userSpaceOnUse" x1="175" y1="0" x2="221" y2="0">
      <stop offset="0" stop-color="#1a2f2b"/>
      <stop offset="0.3" stop-color="#0a1110"/>
      <stop offset="1" stop-color="#020303"/>
    </linearGradient>
    <linearGradient id="xiaoyan-g-bevel" gradientUnits="userSpaceOnUse" x1="0" y1="205" x2="0" y2="388">
      <stop offset="0" stop-color="#2d7466"/>
      <stop offset="1" stop-color="#0a1715"/>
    </linearGradient>
    <!-- lotus flame petals (per-petal bounding box, base at bottom) -->
    <linearGradient id="xiaoyan-g-petal" x1="0" y1="1" x2="0" y2="0">
      <stop offset="0" stop-color="#077a63"/>
      <stop offset="0.5" stop-color="#39ffd0"/>
      <stop offset="1" stop-color="#dcfff6"/>
    </linearGradient>
    <linearGradient id="xiaoyan-g-petal-in" x1="0" y1="1" x2="0" y2="0">
      <stop offset="0" stop-color="#5dffd9"/>
      <stop offset="1" stop-color="#ffffff"/>
    </linearGradient>
    <radialGradient id="xiaoyan-g-core" cx="0.5" cy="0.55" r="0.5">
      <stop offset="0" stop-color="#ffffff"/>
      <stop offset="0.55" stop-color="#f0fffb"/>
      <stop offset="1" stop-color="#9fffe9" stop-opacity="0"/>
    </radialGradient>
    <radialGradient id="xiaoyan-g-halo" cx="0.5" cy="0.5" r="0.5">
      <stop offset="0" stop-color="#e8fff9" stop-opacity="0.85"/>
      <stop offset="0.22" stop-color="#39ffd0" stop-opacity="0.5"/>
      <stop offset="0.6" stop-color="#39ffd0" stop-opacity="0.12"/>
      <stop offset="1" stop-color="#39ffd0" stop-opacity="0"/>
    </radialGradient>
    <radialGradient id="xiaoyan-g-ground" cx="0.5" cy="0.5" r="0.5">
      <stop offset="0" stop-color="#39ffd0" stop-opacity="0.45"/>
      <stop offset="0.5" stop-color="#1fbf9b" stop-opacity="0.16"/>
      <stop offset="1" stop-color="#1fbf9b" stop-opacity="0"/>
    </radialGradient>
    <radialGradient id="xiaoyan-g-aura" cx="0.5" cy="0.5" r="0.5">
      <stop offset="0" stop-color="#39ffd0" stop-opacity="0.12"/>
      <stop offset="1" stop-color="#39ffd0" stop-opacity="0"/>
    </radialGradient>
    <!-- anamorphic lens-flare streak (stretched by the ellipse box) -->
    <radialGradient id="xiaoyan-g-flare" cx="0.5" cy="0.5" r="0.5">
      <stop offset="0" stop-color="#ffffff"/>
      <stop offset="0.2" stop-color="#c8fff2" stop-opacity="0.85"/>
      <stop offset="0.55" stop-color="#39ffd0" stop-opacity="0.3"/>
      <stop offset="1" stop-color="#39ffd0" stop-opacity="0"/>
    </radialGradient>
    <!-- orbiting fire ring around the lotus: bright leading edge, fading tail -->
    <linearGradient id="xiaoyan-g-orbit" gradientUnits="userSpaceOnUse" x1="26" y1="0" x2="84" y2="0">
      <stop offset="0" stop-color="#39ffd0" stop-opacity="0.15"/>
      <stop offset="0.6" stop-color="#9fffe9" stop-opacity="0.8"/>
      <stop offset="1" stop-color="#ffffff"/>
    </linearGradient>

    <!-- glow for flame / embers / cracks -->
    <filter id="xiaoyan-glow" x="-60%" y="-60%" width="220%" height="220%">
      <feGaussianBlur stdDeviation="3.2" result="b"/>
      <feMerge><feMergeNode in="b"/><feMergeNode in="b"/><feMergeNode in="SourceGraphic"/></feMerge>
    </filter>
    <!-- soft bloom for rim light -->
    <filter id="xiaoyan-rim" x="-20%" y="-20%" width="140%" height="140%">
      <feGaussianBlur stdDeviation="1" result="b"/>
      <feMerge><feMergeNode in="b"/><feMergeNode in="SourceGraphic"/></feMerge>
    </filter>

    <!-- ===== body silhouettes (each used twice: offset rim copy + shaded body) ===== -->
    <path id="xiaoyan-s-torso" d="M114 115 C106 116 98 119 93 125 C90 130 91 137 95 143 C97 150 98 158 99 166 C101 178 104 188 106 196 L149 194 C151 182 153 168 156 154 C160 146 164 140 165 133 C165 125 158 119 150 117 C146 116 142 116 139 115 Z"/>
    <path id="xiaoyan-s-farupper" d="M92.6 124.7 C84 134 76 148 68.6 161.2 C67 168 74 174 81.4 170.8 C90 160 100 148 109.4 137.3 C110 130 100 121 92.6 124.7 Z"/>
    <path id="xiaoyan-s-farfore" d="M67.7 169.4 L56.6 140.5 L67.4 135.5 L82.3 162.6 Z"/>
    <path id="xiaoyan-s-nearupper" d="M149 118 C157 117 165 122 167 131 C171 145 175 158 178.6 172.4 C175 180 167 182 163.4 177.6 C159 166 154 154 150 146 C147 138 145 126 149 118 Z"/>
    <!-- front robe panels: hems swept right by the wind -->
    <path id="xiaoyan-s-farpanel" d="M103 202 L127 204 C125 238 122 270 121 298 C123 304 127 309 133 313 C123 315 113 316 104 318 C98 320 93 322 88 325 C90 286 95 240 103 202 Z"/>
    <path id="xiaoyan-s-nearpanel" d="M127 204 L150 200 C157 228 165 258 175 284 C177 290 179 294 183 298 C175 302 166 304 158 306 C151 308 145 311 138 315 C134 280 131 244 127 204 Z"/>
    <path id="xiaoyan-s-farleg" d="M102 226 C96 250 92 274 91 298 C89 316 86 332 84 348 L102 350 C104 334 106 318 108 300 C112 278 117 254 122 228 Z"/>
    <path id="xiaoyan-s-farboot" d="M84 346 L102 348 C102 358 101 368 101 378 L100 389 L70 389 C68 386 70 383 75 381 C80 379 83 374 84 367 Z"/>
    <path id="xiaoyan-s-nearleg" d="M128 226 C132 252 136 278 138 300 C139 318 139 332 140 348 L158 348 C157 330 156 314 155 298 C154 272 152 248 150 226 Z"/>
    <path id="xiaoyan-s-nearboot" d="M139 346 L158 346 C158 358 159 370 160 380 L161 389 L131 389 C129 386 131 383 135 382 C138 380 139 375 139 368 Z"/>
    <path id="xiaoyan-s-face" d="M126 58 C114 59 107 66 106 75 L105.5 80 C106 82 107 83 107.5 84 L104 92.5 C103.6 94 104.6 95.2 106.5 95.4 L107.4 97 L106.6 99 L107.8 100.4 L107.2 102 C108 104 107.8 106 109.5 108 C112 110.5 116 110.5 120 109 C126 106 132 101 136 96 L140 86 C144 76 140 62 126 58 Z"/>
    <!-- hair swept back by the wind, long locks streaming right -->
    <path id="xiaoyan-s-hair" d="M108 70 C107 62 112 54 121 51 C130 47 141 47 150 51 C160 52 172 50 186 45 C178 52 170 56 163 58 C173 60 183 62 194 67 C182 68 171 67 161 66 C169 72 177 78 184 87 C174 83 165 79 157 76 C156 84 152 90 147 97 L144 106 L141 96 L138 86 C134 79 128 75 121 73 C116 72 111 71 108 70 Z"/>
  </defs>

  <style>
    .xiaoyan-flick{transform-box:fill-box;transform-origin:50% 100%;animation:xiaoyan-flick 2.6s ease-in-out infinite}
    @keyframes xiaoyan-flick{0%,100%{transform:scale(1,1)}20%{transform:scale(1.04,.95)}45%{transform:scale(.97,1.06)}65%{transform:scale(1.03,.98)}85%{transform:scale(.98,1.04)}}
    .xiaoyan-tongue{transform-box:fill-box;transform-origin:50% 100%;animation:xiaoyan-tongue 2s ease-in-out infinite}
    @keyframes xiaoyan-tongue{0%,100%{opacity:.85;transform:skewX(0deg) scaleY(1)}35%{opacity:.55;transform:skewX(-7deg) scaleY(1.12)}70%{opacity:1;transform:skewX(5deg) scaleY(.92)}}
    .xiaoyan-pulse{transform-box:fill-box;transform-origin:50% 50%;animation:xiaoyan-pulse 3s ease-in-out infinite}
    @keyframes xiaoyan-pulse{0%,100%{opacity:.85;transform:scale(1)}50%{opacity:1;transform:scale(1.07)}}
    .xiaoyan-ember{transform-box:fill-box;transform-origin:50% 50%;animation:xiaoyan-ember 4s linear infinite}
    @keyframes xiaoyan-ember{0%{opacity:0;transform:translate(0,8px)}15%{opacity:1}100%{opacity:0;transform:translate(9px,-26px)}}
    .xiaoyan-sway{transform-box:fill-box;transform-origin:0% 0%;animation:xiaoyan-sway 4s ease-in-out infinite}
    @keyframes xiaoyan-sway{0%,100%{transform:rotate(0deg)}50%{transform:rotate(2.5deg)}}
    .xiaoyan-crack{animation:xiaoyan-crack 3s ease-in-out infinite}
    @keyframes xiaoyan-crack{0%,100%{opacity:.5}50%{opacity:1}}
    .xiaoyan-flare{transform-box:fill-box;transform-origin:50% 50%;animation:xiaoyan-flare 2.6s ease-in-out infinite}
    @keyframes xiaoyan-flare{0%,100%{opacity:.8;transform:scale(.88,1)}45%{opacity:1;transform:scale(1.08,1.15)}}
    .xiaoyan-wisp{transform-box:fill-box;transform-origin:0% 100%;animation:xiaoyan-wisp 3s ease-out infinite}
    @keyframes xiaoyan-wisp{0%{opacity:0;transform:translate(0,4px) scale(.7)}25%{opacity:.9}100%{opacity:0;transform:translate(8px,-12px) scale(1.1)}}
    .xiaoyan-orbit{transform-box:fill-box;transform-origin:50% 50%;animation:xiaoyan-orbit 2.6s ease-in-out infinite}
    @keyframes xiaoyan-orbit{0%,100%{opacity:.7;transform:scale(1)}50%{opacity:1;transform:scale(1.06,1.15)}}
    .xiaoyan-ring{transform-box:fill-box;transform-origin:50% 50%;animation:xiaoyan-ring 3.6s ease-out infinite}
    @keyframes xiaoyan-ring{0%{opacity:0;transform:scale(.55)}20%{opacity:.9}100%{opacity:0;transform:scale(1.12)}}
    @media (prefers-reduced-motion: reduce){.xiaoyan-fx,.xiaoyan-fx *{animation:none !important}}
  </style>

  <!-- lineup harmonisation: whole figure scaled 4% about the feet (120,388) so his head line matches the other heroes -->
  <g transform="matrix(1.04 0 0 1.04 -4.8 -15.52)">
  <g class="xiaoyan-fx">

  <!-- ================= GROUND ================= -->
  <ellipse cx="122" cy="386" rx="104" ry="6.5" fill="url(#xiaoyan-g-ground)"/>
  <ellipse cx="66" cy="387.5" rx="44" ry="5" fill="url(#xiaoyan-g-ground)" opacity=".8"/>
  <ellipse cx="116" cy="388.6" rx="52" ry="3" fill="#000" opacity=".55"/>

  <!-- 斗气 shockwave ring on the ground: a faint static ring + an expanding pulse -->
  <g filter="url(#xiaoyan-glow)" fill="none" stroke="#39ffd0">
    <ellipse cx="120" cy="383.5" rx="76" ry="4.5" stroke-width=".8" opacity=".35"/>
    <ellipse class="xiaoyan-ring" cx="120" cy="383.5" rx="94" ry="5.5" stroke-width="1" opacity=".55"/>
  </g>

  <!-- backlight aura behind the figure -->
  <ellipse cx="128" cy="210" rx="82" ry="165" fill="url(#xiaoyan-g-aura)"/>


  <!-- flame halo (behind the hero) -->
  <circle class="xiaoyan-pulse" cx="55" cy="102" r="46" fill="url(#xiaoyan-g-halo)"/>

  <!-- ================= BACK SKIRT / COAT TAILS (blown right, behind legs and blade) ================= -->
  <path d="M110 200 L151 197 C160 218 172 236 186 252 L200 268 L200 300 C192 308 184 318 176 327 C158 330 140 331 120 332 Z" fill="#050b0a"/>
  <path d="M156 216 C164 232 174 246 186 258 M142 226 C152 254 160 282 166 312" fill="none" stroke="#000" stroke-width="1.4" opacity=".7"/>
  <path d="M160 214 C166 228 172 238 180 248 M150 232 C157 256 163 280 168 300" fill="none" stroke="#1d5a50" stroke-width=".8" opacity=".45"/>
  <path d="M151 197 C160 218 168 230 177 241" fill="none" stroke="#39ffd0" stroke-width="1" opacity=".4"/>

  <!-- ================= 玄重尺 heavy black ruler-blade, planted ================= -->
  <!-- broad slab (≈40 wide): lit bevel on the flame side, dark face -->
  <path d="M170 211 L175 207 L180 386 L175 388 Z" fill="url(#xiaoyan-g-bevel)"/>
  <path d="M175 207 L215 207 L220 386 L180 386 Z" fill="url(#xiaoyan-g-blade)"/>
  <!-- polished sheen: faint lit plane catching the flame -->
  <path d="M175 207 L190 207 L184 290 L178 300 Z" fill="#39ffd0" opacity=".07"/>
  <!-- engraved inset border + ruler ticks -->
  <path d="M179.5 213 L210.5 213 L215 380 L184 380 Z" fill="none" stroke="#163a34" stroke-width=".9"/>
  <path d="M210.7 222 h-7 M211 234 h-4 M211.3 246 h-4 M211.7 258 h-7 M212 270 h-4 M212.3 282 h-4 M212.7 294 h-7 M213 306 h-4 M213.3 318 h-4 M213.7 330 h-7 M214 342 h-4 M214.3 354 h-4 M214.7 366 h-7" stroke="#1f4d45" stroke-width=".9"/>
  <!-- glowing inlay under the guard -->
  <path d="M195 219 L199.5 225 L195 231 L190.5 225 Z" fill="#39ffd0" opacity=".85" filter="url(#xiaoyan-rim)"/>
  <!-- guard block -->
  <path d="M172 196.5 L215 196.5 L218 199.5 L169 199.5 Z" fill="#24504a"/>
  <path d="M169 199.5 L218 199.5 L219 208 L170 208 Z" fill="#070c0b"/>
  <!-- handle with wrap + pommel -->
  <path d="M190.5 161 L199 161 L199.5 200 L191 200 Z" fill="#0a1110"/>
  <path d="M190.5 166 L199 163 M190.5 172 L199 169 M190.5 178 L199 175 M190.7 184 L199.2 181" stroke="#1c3f39" stroke-width="1.4"/>
  <path d="M187 156 L202.5 156 L203 162 L186.5 162 Z" fill="#0b1413"/>
  <path d="M188.5 153.5 L201 153.5 L202.5 156 L187 156 Z" fill="#2b6a5e"/>
  <!-- blade rims -->
  <g filter="url(#xiaoyan-rim)" fill="none" stroke-linecap="round">
    <path d="M170 211 L175 388" stroke="url(#xiaoyan-g-rimc)" stroke-width="1.8"/>
    <path d="M169 199.5 L218 199.5" stroke="url(#xiaoyan-g-rimc)" stroke-width="1.1"/>
    <path d="M190.5 162 L190.9 182 M187 156 L186.5 162" stroke="url(#xiaoyan-g-rimc)" stroke-width=".9" opacity=".8"/>
    <path d="M215 207 L220 386" stroke="#39ffd0" stroke-width=".9" opacity=".3"/>
  </g>

  <!-- rocks + glowing cracks where the blade bites into the ground -->
  <path d="M171 390 L177 382 L186 384 L188 390 Z M207 390 L212 383 L221 380 L226 387 L223 390.5 Z M195 390.5 L199 386 L205 388 L204 391 Z" fill="#060908"/>
  <path d="M177 382 L186 384 M212 383 L221 380 M199 386 L205 388" stroke="#39ffd0" stroke-width=".9" opacity=".7"/>
  <g class="xiaoyan-crack" filter="url(#xiaoyan-glow)">
    <path d="M190 387.6 L180 389 L168 388.6 L157 389.2 M209 388 L218 389.2 L225 388.8" fill="none" stroke="#39ffd0" stroke-width="1" stroke-linecap="round"/>
  </g>

  <!-- ================= LEGS ================= -->
  <!-- near leg (weight-bearing) -->
  <use href="#xiaoyan-s-nearleg" transform="translate(-1.2 0)" fill="url(#xiaoyan-g-rimc)" opacity=".55"/>
  <use href="#xiaoyan-s-nearleg" fill="url(#xiaoyan-g-lit)"/>
  <path d="M149 230 C152 256 154 280 155 300 C156 318 157 332 158 348 L150 348 C149 330 148 312 147 296 C146 274 145 252 143 232 Z" fill="#000" opacity=".45"/>
  <use href="#xiaoyan-s-nearboot" transform="translate(-1.2 -.4)" fill="url(#xiaoyan-g-rimc)" opacity=".6"/>
  <use href="#xiaoyan-s-nearboot" fill="#040606"/>
  <path d="M139 347 L158 347" stroke="#1d4d44" stroke-width="2"/>
  <path d="M153 352 C154 362 155 372 156 386" stroke="#000" stroke-width="2" opacity=".5"/>
  <!-- dim teal back-rim on the shadow-side edge so the leg doesn't vanish on the dark page -->
  <path d="M150.6 230 C152.4 250 154 272 155 298 C156 314 157 330 157.6 346 M157.8 350 C158 360 159 370 159.8 380 L160.6 388" fill="none" stroke="#39ffd0" stroke-width=".9" opacity=".35"/>
  <!-- far leg (stepping forward-left) -->
  <use href="#xiaoyan-s-farleg" transform="translate(-1.6 -.2)" fill="url(#xiaoyan-g-rimc)"/>
  <use href="#xiaoyan-s-farleg" fill="url(#xiaoyan-g-lit)"/>
  <path d="M120 230 C115 254 110 278 107 300 C105 316 103 332 102 350 L96 349 C97 332 99 316 101 300 C104 278 108 254 113 230 Z" fill="#000" opacity=".45"/>
  <use href="#xiaoyan-s-farboot" transform="translate(-1.6 -.6)" fill="url(#xiaoyan-g-rimc)"/>
  <use href="#xiaoyan-s-farboot" fill="#050807"/>
  <path d="M84 347 L102 349" stroke="#2a7366" stroke-width="2"/>
  <path d="M96 352 C96 362 96 372 96 386" stroke="#000" stroke-width="2" opacity=".5"/>

  <!-- ================= FRONT ROBE PANELS ================= -->
  <use href="#xiaoyan-s-nearpanel" transform="translate(-1 -.3)" fill="url(#xiaoyan-g-rimc)" opacity=".5"/>
  <use href="#xiaoyan-s-nearpanel" fill="url(#xiaoyan-g-lit)"/>
  <path d="M150 200 C157 228 165 258 175 284 C177 290 179 294 183 298 C176 301 169 303 162 305 C155 272 148 238 141 202 Z" fill="#000" opacity=".4"/>
  <!-- wind-pressed folds sweeping toward the hem tip -->
  <path d="M138 210 C141 240 147 272 156 304 M146 214 C152 242 160 268 172 292" fill="none" stroke="#000" stroke-width="1.3" opacity=".6"/>
  <path d="M134 212 C136 242 140 274 146 309" fill="none" stroke="#1d5a50" stroke-width=".9" opacity=".45"/>
  <use href="#xiaoyan-s-farpanel" transform="translate(-1.8 -.4)" fill="url(#xiaoyan-g-rimc)" filter="url(#xiaoyan-rim)"/>
  <use href="#xiaoyan-s-farpanel" fill="url(#xiaoyan-g-lit)"/>
  <path d="M120 206 C119 240 117 272 118 300 C121 306 126 310 133 313 C126 314 119 315 112 316 C111 280 113 240 116 205 Z" fill="#000" opacity=".4"/>
  <path d="M112 212 C110 242 108 276 107 316 M117 230 C115 260 114 288 116 312" fill="none" stroke="#000" stroke-width="1.3" opacity=".55"/>
  <path d="M107 214 C104 246 100 280 97 320" fill="none" stroke="#2a7366" stroke-width=".9" opacity=".55"/>
  <!-- lit hem edge catching the flame -->
  <path d="M88.5 324.5 C94 322 99 320 104 318.5 C111 317 118 316 126 314" fill="none" stroke="url(#xiaoyan-g-rimc)" stroke-width="1" opacity=".55"/>

  <!-- front-edge trim (collar band continues down the opening) -->
  <path d="M131 204 C134 244 137 280 141 312 L138 314 C134 280 131 244 127 204 Z" fill="#0f2925"/>
  <path d="M127 204 L123 204 C121 238 118.5 270 117.5 300 L121 299 C122 270 125 238 127 204 Z" fill="#12312c"/>
  <path d="M123.5 206 C121.5 240 119 272 118 299" fill="none" stroke="#4fe0bd" stroke-width=".7" opacity=".55"/>

  <!-- ================= FAR ARM (raised, holds the flame) ================= -->
  <use href="#xiaoyan-s-farupper" transform="translate(-1.3 -1.3)" fill="url(#xiaoyan-g-rimc)" filter="url(#xiaoyan-rim)"/>
  <use href="#xiaoyan-s-farupper" fill="url(#xiaoyan-g-lit)"/>
  <path d="M81 168 C88 160 98 148 106 140" stroke="#000" stroke-width="1.2" opacity=".5"/>
  <use href="#xiaoyan-s-farfore" transform="translate(-1.5 -.8)" fill="url(#xiaoyan-g-rimc)" filter="url(#xiaoyan-rim)"/>
  <use href="#xiaoyan-s-farfore" fill="url(#xiaoyan-g-lit)"/>
  <!-- bracer -->
  <path d="M64.8 160.5 L56 140.6 L68 135 L77.4 154.7 Z" fill="#0a1916"/>
  <path d="M63 156.4 L75.4 150.6 M59.2 148 L71.6 142.2" stroke="#2c7a6b" stroke-width="1"/>
  <path d="M68 135 L77.4 154.7" stroke="#000" stroke-width="1.6" opacity=".5"/>

  <!-- ================= TORSO ================= -->
  <use href="#xiaoyan-s-torso" transform="translate(-1.8 -1)" fill="url(#xiaoyan-g-rimc)" filter="url(#xiaoyan-rim)"/>
  <use href="#xiaoyan-s-torso" fill="url(#xiaoyan-g-lit)"/>
  <!-- core shadow on the side turned away from the flame -->
  <path d="M139 115 C146 116 152 117 156 120 C162 126 164 134 160 144 C156 160 152 178 149 194 L132 195 C138 172 141 146 139 115 Z" fill="#000" opacity=".42"/>
  <!-- lit plane: far shoulder / chest facing the flame -->
  <path d="M97 124 C103 119 110 117 114 117 L110 131 C106 139 102 146 98 150 C94 140 93 130 97 124 Z" fill="#39ffd0" opacity=".12"/>
  <!-- inner garment at the neck V -->
  <path d="M115 117 L136 116 L125 137 Z" fill="#1f2a28"/>
  <!-- cross-collar lapel (right over left) -->
  <path d="M136 115 L142 116.5 C135 140 123 165 111 192 L104 192 C116 166 128 140 136 115 Z" fill="#0f2925"/>
  <path d="M112 117 L118 117 L126 137 L123 141 Z" fill="#0d241f"/>
  <path d="M141 117 C134 140 122 165 110 192" stroke="#4fe0bd" stroke-width=".8" opacity=".5" fill="none"/>
  <!-- tension folds pulled from the raised arm -->
  <path d="M100 146 C108 152 114 160 117 170 M103 136 C111 141 118 148 123 157" fill="none" stroke="#000" stroke-width="1.1" opacity=".5"/>
  <path d="M101 142 C109 148 115 155 119 164" fill="none" stroke="#2a7366" stroke-width=".8" opacity=".55"/>
  <!-- robe folds -->
  <path d="M150 146 C146 160 142 174 140 186 M122 150 C125 162 127 174 128 186 M104 160 C108 166 112 170 116 172" fill="none" stroke="#000" stroke-width="1.2" opacity=".55"/>
  <path d="M146 150 C142 164 138 176 136 186 M119 152 C121 164 123 176 124 186" fill="none" stroke="#1d5a50" stroke-width=".9" opacity=".4"/>

  <!-- sash band + knot -->
  <path d="M103 188 C118 186 134 185 149 184 L150 201 C135 202 119 203 104 205 Z" fill="#0b1c19"/>
  <path d="M103 188 C118 186 134 185 149 184" stroke="#4fe0bd" stroke-width=".9" opacity=".6" fill="none"/>
  <path d="M104 196.5 C119 195 135 194 149.5 193" stroke="#1b4a42" stroke-width="1"/>
  <path d="M135 186 L149 184 L150 201 L136 202 Z" fill="#000" opacity=".4"/>
  <path d="M141 186 C146 183 152 185 153 191 C154 197 150 202 145 201 C141 199 139 192 141 186 Z" fill="#0f2622"/>
  <path d="M143 189 C146 187 149 188 150 191 C150 195 147 197 145 196" fill="none" stroke="#000" stroke-width="1" opacity=".6"/>
  <path d="M141.5 187 C144 184 148 183.6 151 185.5" fill="none" stroke="#39ffd0" stroke-width=".7" opacity=".45"/>
  <!-- jade pendant on the sash -->
  <path d="M113 204 L113 213" stroke="#163a34" stroke-width="1"/>
  <path d="M113 212 L116 216.5 L113 221 L110 216.5 Z" fill="#39ffd0" opacity=".75"/>
  <!-- sash tails hanging from the knot, fluttering right (forked ends) -->
  <g class="xiaoyan-sway" style="animation-delay:-1.3s">
    <path d="M146 197 L151 196 C156 204 160 211 166 217 C169 220 173 222 177 223 L172 226 L174 230 C166 228 160 223 156 217 C151 211 148 204 146 197 Z" fill="#071512"/>
    <path d="M151 196 C156 204 160 211 166 217 C169 220 173 222 177 223" fill="none" stroke="#39ffd0" stroke-width=".7" opacity=".35"/>
  </g>
  <g class="xiaoyan-sway">
    <path d="M141 197 L148 197 C152 208 156 218 162 227 C166 234 171 239 178 243 L172 245.5 L175 251 C165 248 158 241 153 233 C147 223 143 211 141 197 Z" fill="#0d221e"/>
    <path d="M141 197 C143 211 147 223 153 233 C158 241 165 248 175 251" fill="none" stroke="url(#xiaoyan-g-rimc)" stroke-width="1" opacity=".7"/>
    <path d="M145 200 C149 214 154 226 162 236" fill="none" stroke="#000" stroke-width="1" opacity=".5"/>
  </g>

  <!-- ================= NECK + HEAD ================= -->
  <path d="M116 102 C116 108 115.5 114 115 121 L138 121 C136.5 114 135.5 106 135.5 96 Z" fill="#141c1a"/>
  <path d="M115.5 107 C122 109 130 105 135.5 98 L137 110 C130 113 122 113 115.4 112 Z" fill="#000" opacity=".5"/>
  <path d="M129 104 L136 99 L138 121 L131 121 Z" fill="#000" opacity=".35"/>
  <path d="M116 104 L115.2 120" stroke="url(#xiaoyan-g-rimc)" stroke-width="1.1" filter="url(#xiaoyan-rim)"/>
  <!-- head scaled a touch for heroic ~7-head proportions -->
  <g transform="translate(124 112) scale(.92) translate(-124 -112)">
    <use href="#xiaoyan-s-face" transform="translate(-1.5 .3)" fill="url(#xiaoyan-g-rimc)" filter="url(#xiaoyan-rim)"/>
    <use href="#xiaoyan-s-face" fill="url(#xiaoyan-g-skin)"/>
    <!-- jaw / cheek core shadow -->
    <path d="M136 96 C130 102 124 106 118 109 C124 104 128 96 130 88 C132 84 136 82 140 86 Z" fill="#000" opacity=".35"/>
    <!-- ear -->
    <path d="M134 85 C138 83 141 86 140 91 C139 95 136 97 134 96 Z" fill="#0f1211"/>
    <path d="M136 87 C138 88 138 92 136 94" stroke="#000" stroke-width=".8" fill="none"/>
    <!-- brow (inner end lowered: determined) + brow-ridge shadow -->
    <path d="M107.5 83.6 C111 82.2 116 82 121 83.4 L120 86 C116 85 111 85.6 108 86.2 Z" fill="#000" opacity=".35"/>
    <path d="M106 81.8 C110 80 115.5 78.8 121.5 79 L121 80.6 C115.5 80.8 110.5 82 106.8 83.4 Z" fill="#010202"/>
    <!-- eye with flame glint -->
    <path d="M109.5 86.2 C112 84.6 116 84.3 119 85.4 C116.5 87.2 112.5 87.6 109.5 86.2 Z" fill="#030404"/>
    <path d="M109 85.8 C112 83.8 117 83.6 120 85" fill="none" stroke="#010101" stroke-width="1.1"/>
    <circle cx="112.3" cy="85.9" r="1" fill="#c4fff2"/>
    <!-- nostril + set mouth -->
    <path d="M106.8 94.6 L108.4 94.4 M107.8 100.5 L112 100.9" stroke="#050404" stroke-width=".8" fill="none"/>
    <!-- hair -->
    <use href="#xiaoyan-s-hair" transform="translate(-1.4 -1)" fill="url(#xiaoyan-g-rimc)" filter="url(#xiaoyan-rim)"/>
    <use href="#xiaoyan-s-hair" fill="url(#xiaoyan-g-hair)"/>
    <!-- strand lines -->
    <path d="M112 60 C126 54 144 53 168 54 M110 66 C124 61 142 61 172 64 M122 70 C134 70 146 74 160 74 M140 80 C144 86 146 92 146 98" fill="none" stroke="#1d5248" stroke-width=".9" opacity=".75"/>
    <!-- loose lock falling over the brow -->
    <path d="M114 67 C111 72 110.5 78 112.5 84 C113.5 78 114.5 73 118 69 Z" fill="#050b0a"/>
    <path d="M113.4 68 C111.4 72 111 77 112 81" fill="none" stroke="#39ffd0" stroke-width=".6" opacity=".45"/>
    <!-- dim back-rim on the streaming locks -->
    <path d="M150 51 C160 52 172 50 186 45 M163 58 C173 60 183 62 194 67 M161 66 C169 72 177 78 184 87" fill="none" stroke="#39ffd0" stroke-width="1" opacity=".4"/>
  </g>

  <!-- ================= NEAR ARM (grips the ruler handle) ================= -->
  <use href="#xiaoyan-s-nearupper" transform="translate(1.1 -.3)" fill="#2aa88a" opacity=".5"/>
  <use href="#xiaoyan-s-nearupper" fill="url(#xiaoyan-g-lit)"/>
  <path d="M157 124 C162 138 168 156 172 172 C170 177 166 179 163.4 177.6 L151 148 Z" fill="#000" opacity=".3"/>
  <path d="M165.2 179.8 L181.5 196.7 L190.5 189.3 L176.8 170.2 Z" fill="#071311"/>
  <!-- bracer -->
  <path d="M171 185.7 L181.2 197 L190.8 189 L181.6 176.9 Z" fill="#081513"/>
  <path d="M173.6 188.6 L184 179.8 M177.4 192.8 L187.8 184" stroke="#1f564c" stroke-width="1"/>
  <!-- fist around the handle -->
  <path d="M182 191 C183 185 189 182 196 183 C200.5 184 202.5 188 201.5 193 C200.5 198 196 201 190 200.5 C185 200 182 196 182 191 Z" fill="#151d1b"/>
  <path d="M196 186 L201 187 M196.4 191 L201.4 191.8 M195.4 195.8 L200 196.6" stroke="#040505" stroke-width=".9"/>
  <path d="M183 188 C185 184 190 182.5 195 183" stroke="#4fe0bd" stroke-width=".8" opacity=".5" fill="none"/>

  <!-- ================= FAR HAND (palm up, cupping the fire) ================= -->
  <path d="M57.5 141.5 C52 141.5 46.5 138.5 44 133.5 C43 130.5 44 127.5 46.5 126 L49 129 C52.5 131 56.5 131.8 60.5 131 L63 125.5 C66.5 125.5 69 130 67.5 136.5 Z" fill="#2a5a50"/>
  <path d="M46.5 126 L49 129 C52.5 131 56.5 131.8 60.5 131 L63 125.5" fill="none" stroke="#e8fff9" stroke-width="1.5" filter="url(#xiaoyan-rim)"/>

  <!-- ================= 青莲地心火 LOTUS FLAME ================= -->
  <!-- orbiting fire ring: back half (behind the lotus) -->
  <g transform="rotate(-14 55 114)" filter="url(#xiaoyan-glow)" fill="none" stroke="url(#xiaoyan-g-orbit)" stroke-linecap="round" opacity=".55">
    <path class="xiaoyan-orbit" d="M25 114 A30 8 0 0 1 85 114" stroke-width="1"/>
  </g>
  <g filter="url(#xiaoyan-glow)">
    <g transform="translate(55 128)">
      <g class="xiaoyan-flick">
        <!-- low spreading petals -->
        <path transform="rotate(-80)" d="M0 0 C-6 -6 -5 -15 0 -21 C5 -15 6 -6 0 0 Z" fill="url(#xiaoyan-g-petal)" opacity=".85"/>
        <path transform="rotate(80)" d="M0 0 C-6 -6 -5 -15 0 -21 C5 -15 6 -6 0 0 Z" fill="url(#xiaoyan-g-petal)" opacity=".85"/>
        <!-- outer petals -->
        <path transform="translate(-2 0) rotate(-52)" d="M0 0 C-8 -9 -7 -22 0 -31 C7 -22 8 -9 0 0 Z" fill="url(#xiaoyan-g-petal)"/>
        <path transform="translate(2 0) rotate(52)" d="M0 0 C-8 -9 -7 -22 0 -31 C7 -22 8 -9 0 0 Z" fill="url(#xiaoyan-g-petal)"/>
        <path transform="translate(-1 0) rotate(-26)" d="M0 0 C-10 -12 -8 -28 0 -38 C8 -28 10 -12 0 0 Z" fill="url(#xiaoyan-g-petal)"/>
        <path transform="translate(1 0) rotate(26)" d="M0 0 C-10 -12 -8 -28 0 -38 C8 -28 10 -12 0 0 Z" fill="url(#xiaoyan-g-petal)"/>
        <path d="M0 0 C-11 -14 -9 -32 0 -44 C9 -32 11 -14 0 0 Z" fill="url(#xiaoyan-g-petal)"/>
        <!-- inner petals -->
        <path transform="rotate(-22)" d="M0 0 C-6 -8 -5 -18 0 -26 C5 -18 6 -8 0 0 Z" fill="url(#xiaoyan-g-petal-in)"/>
        <path transform="rotate(22)" d="M0 0 C-6 -8 -5 -18 0 -26 C5 -18 6 -8 0 0 Z" fill="url(#xiaoyan-g-petal-in)"/>
        <path d="M0 0 C-7 -10 -6 -22 0 -31 C6 -22 7 -10 0 0 Z" fill="url(#xiaoyan-g-petal-in)"/>
        <!-- white-hot core -->
        <ellipse cx="0" cy="-10" rx="6.5" ry="10" fill="url(#xiaoyan-g-core)"/>
      </g>
      <!-- flame tongue rising -->
      <g class="xiaoyan-tongue">
        <path d="M-5 -24 C-9 -36 -2 -46 2 -62 C4 -50 10 -40 8 -28 C6 -24 1 -22 -5 -24 Z" fill="#a6fff0" opacity=".75"/>
      </g>
    </g>
    <!-- fire-lotus petals tearing off and drifting right on the wind -->
    <path class="xiaoyan-wisp" d="M67.4 61.7 C66.6 58.4 69.2 54.7 72.6 54.3 C73.4 57.6 70.8 61.3 67.4 61.7 Z" fill="#c8fff2" opacity=".85"/>
    <path class="xiaoyan-wisp" style="animation-delay:-1.5s" d="M76.7 87.2 C77.7 84.8 81 83.6 83.3 84.8 C82.3 87.2 79 88.4 76.7 87.2 Z" fill="#7dffe3" opacity=".75"/>
    <path class="xiaoyan-wisp" style="animation-delay:-.8s" d="M39.2 81.3 C36.8 80.3 35.6 77 36.8 74.7 C39.2 75.7 40.4 79 39.2 81.3 Z" fill="#7dffe3" opacity=".65"/>
    <path class="xiaoyan-wisp" style="animation-delay:-2.2s" d="M91.5 71.7 C91.8 69.5 94.3 67.8 96.5 68.3 C96.2 70.5 93.7 72.2 91.5 71.7 Z" fill="#a6fff0" opacity=".7"/>
  </g>
  <!-- orbiting fire ring: front half (in front of the lotus) -->
  <g transform="rotate(-14 55 114)" filter="url(#xiaoyan-glow)" fill="none" stroke="url(#xiaoyan-g-orbit)" stroke-linecap="round">
    <path class="xiaoyan-orbit" d="M25 114 A30 8 0 0 0 85 114" stroke-width="1.6"/>
  </g>

  <!-- anamorphic lens flare through the flame: the poster "hot spot" -->
  <g class="xiaoyan-flare">
    <ellipse cx="55" cy="114" rx="44" ry="1.8" fill="url(#xiaoyan-g-flare)"/>
    <ellipse cx="55" cy="114" rx="20" ry=".8" fill="#ffffff" opacity=".9"/>
    <ellipse cx="55" cy="114" rx="1" ry="15" fill="url(#xiaoyan-g-flare)"/>
  </g>

  <!-- ================= EMBERS ================= -->
  <g filter="url(#xiaoyan-glow)" fill="#c9fff3">
    <circle class="xiaoyan-ember" cx="40" cy="70" r="1.5"/>
    <circle class="xiaoyan-ember" style="animation-delay:-1s" cx="66" cy="56" r="1.2"/>
    <circle class="xiaoyan-ember" style="animation-delay:-2.2s" cx="88" cy="80" r="1.6"/>
    <circle class="xiaoyan-ember" style="animation-delay:-3.1s" cx="26" cy="100" r="1.1"/>
    <circle class="xiaoyan-ember" style="animation-delay:-.6s" cx="92" cy="46" r="1.3"/>
    <circle class="xiaoyan-ember" style="animation-delay:-1.7s" cx="54" cy="44" r="1.1"/>
    <circle class="xiaoyan-ember" style="animation-delay:-2.8s" cx="82" cy="104" r="1.2"/>
    <circle class="xiaoyan-ember" style="animation-delay:-3.5s" cx="22" cy="142" r="1.2"/>
    <circle class="xiaoyan-ember" style="animation-delay:-1.2s" cx="112" cy="42" r="1"/>
    <circle class="xiaoyan-ember" style="animation-delay:-1.4s" cx="166" cy="368" r="1.2"/>
    <circle class="xiaoyan-ember" style="animation-delay:-2.5s" cx="222" cy="352" r="1.1"/>
    <circle class="xiaoyan-ember" style="animation-delay:-.3s" cx="200" cy="330" r="1.3"/>
    <circle class="xiaoyan-ember" style="animation-delay:-3.3s" cx="46" cy="300" r="1.1"/>
    <circle class="xiaoyan-ember" style="animation-delay:-2s" cx="60" cy="350" r="1"/>
    <!-- spark streaks leaning with the wind -->
    <path class="xiaoyan-ember" style="animation-delay:-.4s" d="M35.5 83.9 L34.7 86.5 L32.5 88.1 L33.3 85.5 Z"/>
    <path class="xiaoyan-ember" style="animation-delay:-2.6s" d="M75.8 67.8 L74.7 70.6 L72.2 72.2 L73.3 69.4 Z"/>
    <path class="xiaoyan-ember" style="animation-delay:-1.9s" d="M99.2 60 L98.6 62.4 L96.8 64 L97.4 61.6 Z"/>
    <path class="xiaoyan-ember" style="animation-delay:-3.7s" d="M21.5 118.2 L20.6 120.5 L18.5 121.8 L19.4 119.5 Z"/>
    <path class="xiaoyan-ember" style="animation-delay:-.9s" d="M71.2 148.3 L70.5 150.4 L68.8 151.7 L69.5 149.6 Z"/>
    <path class="xiaoyan-ember" style="animation-delay:-3s" d="M189.3 349.7 L188.7 352.4 L186.7 354.3 L187.3 351.6 Z"/>
    <path class="xiaoyan-ember" style="animation-delay:-1.6s" d="M213.3 320.1 L212.6 322.4 L210.7 323.9 L211.4 321.6 Z"/>
    <path class="xiaoyan-ember" style="animation-delay:-2.3s" d="M161 338.2 L160.6 340.3 L159 341.8 L159.4 339.7 Z"/>
  </g>

  </g>
  </g>
</svg>
